{
  "accessors": [
    {
      "bufferView": 2,
      "componentType": 5126,
      "count": 65532,
      "max": [
        7.083703994750977,
        14.167398452758789,
        30.0
      ],
      "min": [
        -14.167398452758789,
        4.470348358154297e-06,
        0.0
      ],
      "type": "VEC3"
    },
    {
      "bufferView": 2,
      "byteOffset": 786384,
      "componentType": 5126,
      "count": 65532,
      "max": [
        0.5000119209289551,
        1.0,
        1.0
      ],
      "min": [
        -1.0,
        -7.612355602759635e-06,
        -1.0
      ],
      "type": "VEC3"
    },
    {
      "bufferView": 3,
      "componentType": 5126,
      "count": 65532,
      "max": [
        5.569356289925054e-06,
        0.5000118613243103,
        0.01930749975144863,
        1.0
      ],
      "min": [
        -1.0,
        -1.0,
        -0.019455598667263985,
        1.0
      ],
      "type": "VEC4"
    },
    {
      "bufferView": 1,
      "componentType": 5126,
      "count": 65532,
      "max": [
        0.9999949932098389,
        1.1368076801300049
      ],
      "min": [
        3.904104232788086e-06,
        -0.13680794835090637
      ],
      "type": "VEC2"
    },
    {
      "bufferView": 1,
      "byteOffset": 524256,
      "componentType": 5126,
      "count": 65532,
      "max": [
        0.9999949932098389,
        1.1368076801300049
      ],
      "min": [
        3.904104232788086e-06,
        -0.13680794835090637
      ],
      "type": "VEC2"
    },
    {
      "bufferView": 0,
      "componentType": 5125,
      "count": 387801,
      "type": "SCALAR"
    },
    {
      "bufferView": 2,
      "byteOffset": 1572768,
      "componentType": 5126,
      "count": 65532,
      "max": [
        14.167398452758789,
        13.938407897949219,
        30.0
      ],
      "min": [
        -11.596728324890137,
        -12.269331932067871,
        0.0
      ],
      "type": "VEC3"
    },
    {
      "bufferView": 2,
      "byteOffset": 2359152,
      "componentType": 5126,
      "count": 65532,
      "max": [
        1.0,
        0.9838683009147644,
        1.0
      ],
      "min": [
        -2.4777980797807686e-05,
        -0.8660286068916321,
        -1.0
      ],
      "type": "VEC3"
    },
    {
      "bufferView": 3,
      "byteOffset": 1048512,
      "componentType": 5126,
      "count": 65532,
      "max": [
        0.8660285472869873,
        1.0,
        0.01931198686361313,
        1.0
      ],
      "min": [
        -1.0,
        -0.9978495836257935,
        -0.019455526024103165,
        1.0
      ],
      "type": "VEC4"
    },
    {
      "bufferView": 1,
      "byteOffset": 1048512,
      "componentType": 5126,
      "count": 65532,
      "max": [
        0.9999949932098389,
        1.1368076801300049
      ],
      "min": [
        3.904104232788086e-06,
        -0.13680794835090637
      ],
      "type": "VEC2"
    },
    {
      "bufferView": 1,
      "byteOffset": 1572768,
      "componentType": 5126,
      "count": 65532,
      "max": [
        0.9999949932098389,
        1.1368076801300049
      ],
      "min": [
        3.904104232788086e-06,
        -0.13680794835090637
      ],
      "type": "VEC2"
    },
    {
      "bufferView": 0,
      "byteOffset": 1551204,
      "componentType": 5125,
      "count": 384375,
      "type": "SCALAR"
    },
    {
      "bufferView": 2,
      "byteOffset": 3145536,
      "componentType": 5126,
      "count": 65532,
      "max": [
        12.951818466186523,
        9.663021087646484,
        30.0
      ],
      "min": [
        -14.167398452758789,
        -14.167398452758789,
        0.0
      ],
      "type": "VEC3"
    },
    {
      "bufferView": 2,
      "byteOffset": 3931920,
      "componentType": 5126,
      "count": 65532,
      "max": [
        0.9142397046089172,
        8.019001143111382e-06,
        1.0
      ],
      "min": [
        -1.0,
        -1.0,
        -1.0
      ],
      "type": "VEC3"
    },
    {
      "bufferView": 3,
      "byteOffset": 2097024,
      "componentType": 5126,
      "count": 65532,
      "max": [
        1.0,
        1.0,
        0.01930457353591919,
        1.0
      ],
      "min": [
        -0.8313899636268616,
        -1.0,
        -0.01944919303059578,
        1.0
      ],
      "type": "VEC4"
    },
    {
      "bufferView": 1,
      "byteOffset": 2097024,
      "componentType": 5126,
      "count": 65532,
      "max": [
        0.9999949932098389,
        1.1368076801300049
      ],
      "min": [
        3.904104232788086e-06,
        -0.13680794835090637
      ],
      "type": "VEC2"
    },
    {
      "bufferView": 1,
      "byteOffset": 2621280,
      "componentType": 5126,
      "count": 65532,
      "max": [
        0.9999949932098389,
        1.1368076801300049
      ],
      "min": [
        3.904104232788086e-06,
        -0.13680794835090637
      ],
      "type": "VEC2"
    },
    {
      "bufferView": 0,
      "byteOffset": 3088704,
      "componentType": 5125,
      "count": 384249,
      "type": "SCALAR"
    },
    {
      "bufferView": 2,
      "byteOffset": 4718304,
      "componentType": 5126,
      "count": 28979,
      "max": [
        5.140112400054932,
        -0.7528342604637146,
        30.0
      ],
      "min": [
        -14.136966705322266,
        -11.851367950439453,
        0.0
      ],
      "type": "VEC3"
    },
    {
      "bufferView": 2,
      "byteOffset": 5066052,
      "componentType": 5126,
      "count": 28979,
      "max": [
        1.145279748016037e-05,
        0.0,
        1.0
      ],
      "min": [
        -0.9978500008583069,
        -0.7983003854751587,
        -1.0
      ],
      "type": "VEC3"
    },
    {
      "bufferView": 3,
      "byteOffset": 3145536,
      "componentType": 5126,
      "count": 28979,
      "max": [
        1.0,
        0.4421609342098236,
        0.002376992953941226,
        1.0
      ],
      "min": [
        0.06553684175014496,
        -0.9978501200675964,
        -0.0023893846664577723,
        1.0
      ],
      "type": "VEC4"
    },
    {
      "bufferView": 1,
      "byteOffset": 3145536,
      "componentType": 5126,
      "count": 28979,
      "max": [
        0.968745231628418,
        1.1026058197021484
      ],
      "min": [
        0.031253598630428314,
        -0.10260595381259918
      ],
      "type": "VEC2"
    },
    {
      "bufferView": 1,
      "byteOffset": 3377368,
      "componentType": 5126,
      "count": 28979,
      "max": [
        0.968745231628418,
        1.1026058197021484
      ],
      "min": [
        0.031253598630428314,
        -0.10260595381259918
      ],
      "type": "VEC2"
    },
    {
      "bufferView": 0,
      "byteOffset": 4625700,
      "componentType": 5125,
      "count": 170679,
      "type": "SCALAR"
    }
  ],
  "asset": {
    "extras": {
      "author": "niver_mk (https://sketchfab.com/niver_mk)",
      "license": "CC-BY-4.0 (http://creativecommons.org/licenses/by/4.0/)",
      "source": "https://sketchfab.com/3d-models/wooden-floor-tileable-material-b7e4f663ba90447790b1ea580a030d07",
      "title": "Wooden Floor (Tileable Material)"
    },
    "generator": "Sketchfab-12.68.0",
    "version": "2.0"
  },
  "bufferViews": [
    {
      "buffer": 0,
      "byteLength": 5308416,
      "name": "floatBufferViews",
      "target": 34963
    },
    {
      "buffer": 0,
      "byteLength": 3609200,
      "byteOffset": 5308416,
      "byteStride": 8,
      "name": "floatBufferViews",
      "target": 34962
    },
    {
      "buffer": 0,
      "byteLength": 5413800,
      "byteOffset": 8917616,
      "byteStride": 12,
      "name": "floatBufferViews",
      "target": 34962
    },
    {
      "buffer": 0,
      "byteLength": 3609200,
      "byteOffset": 14331416,
      "byteStride": 16,
      "name": "floatBufferViews",
      "target": 34962
    }
  ],
  "buffers": [
    {
      "byteLength": 17940616,
      "uri": "scene.bin"
    }
  ],
  "images": [
    {
      "uri": "textures/material_baseColor.png"
    },
    {
      "uri": "textures/material_metallicRoughness.png"
    },
    {
      "uri": "textures/material_normal.png"
    }
  ],
  "materials": [
    {
      "doubleSided": true,
      "name": "material",
      "normalTexture": {
        "index": 2
      },
      "occlusionTexture": {
        "index": 1
      },
      "pbrMetallicRoughness": {
        "baseColorTexture": {
          "index": 0
        },
        "metallicRoughnessTexture": {
          "index": 1
        }
      }
    }
  ],
  "meshes": [
    {
      "name": "Cylinder_material_0",
      "primitives": [
        {
          "attributes": {
            "NORMAL": 1,
            "POSITION": 0,
            "TANGENT": 2,
            "TEXCOORD_0": 3,
            "TEXCOORD_1": 4
          },
          "indices": 5,
          "material": 0,
          "mode": 4
        }
      ]
    },
    {
      "name": "Cylinder_material_0",
      "primitives": [
        {
          "attributes": {
            "NORMAL": 7,
            "POSITION": 6,
            "TANGENT": 8,
            "TEXCOORD_0": 9,
            "TEXCOORD_1": 10
          },
          "indices": 11,
          "material": 0,
          "mode": 4
        }
      ]
    },
    {
      "name": "Cylinder_material_0",
      "primitives": [
        {
          "attributes": {
            "NORMAL": 13,
            "POSITION": 12,
            "TANGENT": 14,
            "TEXCOORD_0": 15,
            "TEXCOORD_1": 16
          },
          "indices": 17,
          "material": 0,
          "mode": 4
        }
      ]
    },
    {
      "name": "Cylinder_material_0",
      "primitives": [
        {
          "attributes": {
            "NORMAL": 19,
            "POSITION": 18,
            "TANGENT": 20,
            "TEXCOORD_0": 21,
            "TEXCOORD_1": 22
          },
          "indices": 23,
          "material": 0,
          "mode": 4
        }
      ]
    }
  ],
  "nodes": [
    {
      "children": [
        1
      ],
      "matrix": [
        1.0,
        0.0,
        0.0,
        0.0,
        0.0,
        2.220446049250313e-16,
        -1.0,
        0.0,
        0.0,
        1.0,
        2.220446049250313e-16,
        0.0,
        0.0,
        0.0,
        0.0,
        1.0
      ],
      "name": "Sketchfab_model"
    },
    {
      "children": [
        2
      ],
      "matrix": [
        1.0,
        0.0,
        0.0,
        0.0,
        0.0,
        0.0,
        1.0,
        0.0,
        0.0,
        -1.0,
        0.0,
        0.0,
        0.0,
        0.0,
        0.0,
        1.0
      ],
      "name": "mesh.FBX"
    },
    {
      "children": [
        3
      ],
      "name": "RootNode"
    },
    {
      "children": [
        4,
        5,
        6,
        7
      ],
      "matrix": [
        2.5399999618530273,
        0.0,
        0.0,
        0.0,
        -0.0,
        -4.138185194403211e-07,
        -2.5399999618529936,
        0.0,
        0.0,
        2.5399999618529936,
        -4.138185194403211e-07,
        0.0,
        -0.594295084476471,
        0.0,
        0.0,
        1.0
      ],
      "name": "Cylinder"
    },
    {
      "mesh": 0,
      "name": "Cylinder_material_0"
    },
    {
      "mesh": 1,
      "name": "Cylinder_material_0"
    },
    {
      "mesh": 2,
      "name": "Cylinder_material_0"
    },
    {
      "mesh": 3,
      "name": "Cylinder_material_0"
    }
  ],
  "samplers": [
    {
      "magFilter": 9729,
      "minFilter": 9987,
      "wrapS": 10497,
      "wrapT": 10497
    }
  ],
  "scene": 0,
  "scenes": [
    {
      "name": "Sketchfab_Scene",
      "nodes": [
        0
      ]
    }
  ],
  "textures": [
    {
      "sampler": 0,
      "source": 0
    },
    {
      "sampler": 0,
      "source": 1
    },
    {
      "sampler": 0,
      "source": 2
    }
  ]
}
