{
	"asset":{
		"generator":"Khronos glTF Blender I/O v3.5.30",
		"version":"2.0"
	},
	"scene":0,
	"scenes":[
		{
			"name":"Scene",
			"nodes":[
				2,
				3,
				4
			]
		}
	],
	"nodes":[
		{
			"mesh":0,
			"name":"Cover L",
			"rotation":[
				0,
				0,
				-0.7071068286895752,
				0.7071067094802856
			],
			"scale":[
				29.9999942779541,
				0.24999995529651642,
				1
			],
			"translation":[
				-1,
				0.999999463558197,
				0
			]
		},
		{
			"mesh":1,
			"name":"Cover R",
			"rotation":[
				0,
				0,
				0.7071066498756409,
				0.70710688829422
			],
			"scale":[
				29.9999942779541,
				0.24999995529651642,
				1
			],
			"translation":[
				1.0000001192092896,
				0.9999998211860657,
				0
			]
		},
		{
			"children":[
				0,
				1
			],
			"mesh":2,
			"name":"Spine",
			"rotation":[
				0,
				0,
				0.7071068286895752,
				0.7071068286895752
			],
			"scale":[
				0.10000000149011612,
				0.02500000037252903,
				1
			],
			"translation":[
				-0.07500000298023224,
				0.125,
				0
			]
		},
		{
			"name":"Empty",
			"scale":[
				0.2537948787212372,
				0.2537948787212372,
				0.2537948787212372
			],
			"translation":[
				0.10000000149011612,
				0.02500000037252903,
				0
			]
		},
		{
			"name":"Empty.001",
			"scale":[
				0.2537948787212372,
				0.2537948787212372,
				0.2537948787212372
			],
			"translation":[
				-0.10000000149011612,
				0.02500000037252903,
				0
			]
		}
	],
	"animations":[
		{
			"channels":[
				{
					"sampler":0,
					"target":{
						"node":2,
						"path":"rotation"
					}
				}
			],
			"name":"SpineAction.001",
			"samplers":[
				{
					"input":27,
					"interpolation":"LINEAR",
					"output":28
				}
			]
		}
	],
	"materials":[
		{
			"doubleSided":true,
			"name":"Material.007",
			"pbrMetallicRoughness":{
				"baseColorTexture":{
					"index":0
				},
				"metallicFactor":0,
				"roughnessFactor":0.5
			}
		},
		{
			"doubleSided":true,
			"name":"Material.004",
			"pbrMetallicRoughness":{
				"baseColorTexture":{
					"index":1
				},
				"metallicFactor":0,
				"roughnessFactor":0.5
			}
		},
		{
			"doubleSided":true,
			"name":"Material.009",
			"pbrMetallicRoughness":{
				"baseColorFactor":[
					0.8000000715255737,
					0.01216978207230568,
					0.002488459227606654,
					1
				],
				"metallicFactor":0,
				"roughnessFactor":0.5
			}
		},
		{
			"doubleSided":true,
			"name":"Material.010",
			"pbrMetallicRoughness":{
				"baseColorFactor":[
					0.800000011920929,
					0.800000011920929,
					0.800000011920929,
					1
				],
				"metallicFactor":0,
				"roughnessFactor":0.5
			}
		}
	],
	"meshes":[
		{
			"name":"Cube.004",
			"primitives":[
				{
					"attributes":{
						"POSITION":0,
						"TEXCOORD_0":1,
						"NORMAL":2
					},
					"indices":3,
					"material":0
				},
				{
					"attributes":{
						"POSITION":4,
						"TEXCOORD_0":5,
						"NORMAL":6
					},
					"indices":7
				}
			]
		},
		{
			"name":"Cube.003",
			"primitives":[
				{
					"attributes":{
						"POSITION":8,
						"TEXCOORD_0":9,
						"NORMAL":10
					},
					"indices":3,
					"material":1
				},
				{
					"attributes":{
						"POSITION":11,
						"TEXCOORD_0":12,
						"NORMAL":13
					},
					"indices":14
				},
				{
					"attributes":{
						"POSITION":15,
						"TEXCOORD_0":16,
						"NORMAL":17
					},
					"indices":18
				}
			]
		},
		{
			"name":"Cube.002",
			"primitives":[
				{
					"attributes":{
						"POSITION":19,
						"TEXCOORD_0":20,
						"NORMAL":21
					},
					"indices":22,
					"material":2
				},
				{
					"attributes":{
						"POSITION":23,
						"TEXCOORD_0":24,
						"NORMAL":25
					},
					"indices":26,
					"material":3
				}
			]
		}
	],
	"textures":[
		{
			"sampler":0,
			"source":0
		},
		{
			"sampler":0,
			"source":0
		}
	],
	"images":[
		{
			"mimeType":"image/jpeg",
			"name":"book-cover-image",
			"uri":"book-cover-image.jpg"
		}
	],
	"accessors":[
		{
			"bufferView":0,
			"componentType":5126,
			"count":4,
			"max":[
				0,
				-2,
				1
			],
			"min":[
				-2,
				-2,
				-1
			],
			"type":"VEC3"
		},
		{
			"bufferView":1,
			"componentType":5126,
			"count":4,
			"type":"VEC2"
		},
		{
			"bufferView":2,
			"componentType":5126,
			"count":4,
			"type":"VEC3"
		},
		{
			"bufferView":3,
			"componentType":5123,
			"count":6,
			"type":"SCALAR"
		},
		{
			"bufferView":4,
			"componentType":5126,
			"count":20,
			"max":[
				0,
				0,
				1
			],
			"min":[
				-2,
				-2,
				-1
			],
			"type":"VEC3"
		},
		{
			"bufferView":5,
			"componentType":5126,
			"count":20,
			"type":"VEC2"
		},
		{
			"bufferView":6,
			"componentType":5126,
			"count":20,
			"type":"VEC3"
		},
		{
			"bufferView":7,
			"componentType":5123,
			"count":30,
			"type":"SCALAR"
		},
		{
			"bufferView":8,
			"componentType":5126,
			"count":4,
			"max":[
				2,
				-2,
				1
			],
			"min":[
				0,
				-2,
				-1
			],
			"type":"VEC3"
		},
		{
			"bufferView":9,
			"componentType":5126,
			"count":4,
			"type":"VEC2"
		},
		{
			"bufferView":10,
			"componentType":5126,
			"count":4,
			"type":"VEC3"
		},
		{
			"bufferView":11,
			"componentType":5126,
			"count":16,
			"max":[
				2,
				0,
				1
			],
			"min":[
				0,
				-2,
				-1
			],
			"type":"VEC3"
		},
		{
			"bufferView":12,
			"componentType":5126,
			"count":16,
			"type":"VEC2"
		},
		{
			"bufferView":13,
			"componentType":5126,
			"count":16,
			"type":"VEC3"
		},
		{
			"bufferView":14,
			"componentType":5123,
			"count":24,
			"type":"SCALAR"
		},
		{
			"bufferView":15,
			"componentType":5126,
			"count":4,
			"max":[
				2,
				0,
				-1
			],
			"min":[
				0,
				-2,
				-1
			],
			"type":"VEC3"
		},
		{
			"bufferView":16,
			"componentType":5126,
			"count":4,
			"type":"VEC2"
		},
		{
			"bufferView":17,
			"componentType":5126,
			"count":4,
			"type":"VEC3"
		},
		{
			"bufferView":18,
			"componentType":5123,
			"count":6,
			"type":"SCALAR"
		},
		{
			"bufferView":19,
			"componentType":5126,
			"count":20,
			"max":[
				1,
				1,
				1
			],
			"min":[
				-1,
				-1,
				-1
			],
			"type":"VEC3"
		},
		{
			"bufferView":20,
			"componentType":5126,
			"count":20,
			"type":"VEC2"
		},
		{
			"bufferView":21,
			"componentType":5126,
			"count":20,
			"type":"VEC3"
		},
		{
			"bufferView":22,
			"componentType":5123,
			"count":30,
			"type":"SCALAR"
		},
		{
			"bufferView":23,
			"componentType":5126,
			"count":4,
			"max":[
				1,
				1,
				1
			],
			"min":[
				-1,
				1,
				-1
			],
			"type":"VEC3"
		},
		{
			"bufferView":24,
			"componentType":5126,
			"count":4,
			"type":"VEC2"
		},
		{
			"bufferView":25,
			"componentType":5126,
			"count":4,
			"type":"VEC3"
		},
		{
			"bufferView":26,
			"componentType":5123,
			"count":6,
			"type":"SCALAR"
		},
		{
			"bufferView":27,
			"componentType":5126,
			"count":30,
			"max":[
				1.25
			],
			"min":[
				0.041666666666666664
			],
			"type":"SCALAR"
		},
		{
			"bufferView":28,
			"componentType":5126,
			"count":30,
			"type":"VEC4"
		}
	],
	"bufferViews":[
		{
			"buffer":0,
			"byteLength":48,
			"byteOffset":0,
			"target":34962
		},
		{
			"buffer":0,
			"byteLength":32,
			"byteOffset":48,
			"target":34962
		},
		{
			"buffer":0,
			"byteLength":48,
			"byteOffset":80,
			"target":34962
		},
		{
			"buffer":0,
			"byteLength":12,
			"byteOffset":128,
			"target":34963
		},
		{
			"buffer":0,
			"byteLength":240,
			"byteOffset":140,
			"target":34962
		},
		{
			"buffer":0,
			"byteLength":160,
			"byteOffset":380,
			"target":34962
		},
		{
			"buffer":0,
			"byteLength":240,
			"byteOffset":540,
			"target":34962
		},
		{
			"buffer":0,
			"byteLength":60,
			"byteOffset":780,
			"target":34963
		},
		{
			"buffer":0,
			"byteLength":48,
			"byteOffset":840,
			"target":34962
		},
		{
			"buffer":0,
			"byteLength":32,
			"byteOffset":888,
			"target":34962
		},
		{
			"buffer":0,
			"byteLength":48,
			"byteOffset":920,
			"target":34962
		},
		{
			"buffer":0,
			"byteLength":192,
			"byteOffset":968,
			"target":34962
		},
		{
			"buffer":0,
			"byteLength":128,
			"byteOffset":1160,
			"target":34962
		},
		{
			"buffer":0,
			"byteLength":192,
			"byteOffset":1288,
			"target":34962
		},
		{
			"buffer":0,
			"byteLength":48,
			"byteOffset":1480,
			"target":34963
		},
		{
			"buffer":0,
			"byteLength":48,
			"byteOffset":1528,
			"target":34962
		},
		{
			"buffer":0,
			"byteLength":32,
			"byteOffset":1576,
			"target":34962
		},
		{
			"buffer":0,
			"byteLength":48,
			"byteOffset":1608,
			"target":34962
		},
		{
			"buffer":0,
			"byteLength":12,
			"byteOffset":1656,
			"target":34963
		},
		{
			"buffer":0,
			"byteLength":240,
			"byteOffset":1668,
			"target":34962
		},
		{
			"buffer":0,
			"byteLength":160,
			"byteOffset":1908,
			"target":34962
		},
		{
			"buffer":0,
			"byteLength":240,
			"byteOffset":2068,
			"target":34962
		},
		{
			"buffer":0,
			"byteLength":60,
			"byteOffset":2308,
			"target":34963
		},
		{
			"buffer":0,
			"byteLength":48,
			"byteOffset":2368,
			"target":34962
		},
		{
			"buffer":0,
			"byteLength":32,
			"byteOffset":2416,
			"target":34962
		},
		{
			"buffer":0,
			"byteLength":48,
			"byteOffset":2448,
			"target":34962
		},
		{
			"buffer":0,
			"byteLength":12,
			"byteOffset":2496,
			"target":34963
		},
		{
			"buffer":0,
			"byteLength":120,
			"byteOffset":2508
		},
		{
			"buffer":0,
			"byteLength":480,
			"byteOffset":2628
		}
	],
	"samplers":[
		{
			"magFilter":9729,
			"minFilter":9987
		}
	],
	"buffers":[
		{
			"byteLength":3108,
			"uri":"bookColorUvTest.bin"
		}
	]
}
